PathFileType	4	(X/Y/Z)	Kaydara	
DataRate	CameraRate	NumFrames	NumMarkers	Units	OrigDataRate	OrigDataStartFrame	OrigNumFrames	
60.00	60.00	4	74	mm	60.00	1001	111	
Frame#	Time	Y_rasi			Y_rpsi			Y_lpsi			Y_fneck			Y_bneck			Y_fhead			Y_rhead			Y_rshld			Y_relbtop			Y_relbext			Y_relblow			Y_rwrext			Y_rwrtop			Y_rwrlow			Y_lshld			Y_lelbext			Y_lelblow			Y_lelbtop			Y_lwrext			Y_lwrtop			Y_lwrlow			Y_rtopleg			Y_ltopleg			Y_rkneefr			Y_rkneebk			Y_rkneeis			Y_lkneefr			Y_lknssbk			Y_lkneeis			Y_rankfr			Y_rankis			Y_rankbk			Y_lankfr			Y_lankbk			Y_lankis			Y_lhead			Y_lasi			D_rpsi			D_lpsi			D_fneck			D_bneck			D_fhead			D_rhead			D_lhead			D_rshld			D_relbtop			D_relbext			D_relblow			D_rwrext			D_rwrtop			D_rwrlow			D_lshld			D_lelbext			D_lelblow			D_lelbtop			D_lwrext			D_lwrtop			D_lwrlow			D_rtopleg			D_ltopleg			D_rkneefr			D_rkneebk			D_rkneeis			D_lkneefr			D_lknssbk			D_lkneeis			D_rankfr			D_rankis			D_rankbk			D_lankfr			D_lankbk			D_lankis			D_lasi			D_rasi			
		X1	Y1	Z1	X2	Y2	Z2	X3	Y3	Z3	X4	Y4	Z4	X5	Y5	Z5	X6	Y6	Z6	X7	Y7	Z7	X8	Y8	Z8	X9	Y9	Z9	X10	Y10	Z10	X11	Y11	Z11	X12	Y12	Z12	X13	Y13	Z13	X14	Y14	Z14	X15	Y15	Z15	X16	Y16	Z16	X17	Y17	Z17	X18	Y18	Z18	X19	Y19	Z19	X20	Y20	Z20	X21	Y21	Z21	X22	Y22	Z22	X23	Y23	Z23	X24	Y24	Z24	X25	Y25	Z25	X26	Y26	Z26	X27	Y27	Z27	X28	Y28	Z28	X29	Y29	Z29	X30	Y30	Z30	X31	Y31	Z31	X32	Y32	Z32	X33	Y33	Z33	X34	Y34	Z34	X35	Y35	Z35	X36	Y36	Z36	X37	Y37	Z37	X38	Y38	Z38	X39	Y39	Z39	X40	Y40	Z40	X41	Y41	Z41	X42	Y42	Z42	X43	Y43	Z43	X44	Y44	Z44	X45	Y45	Z45	X46	Y46	Z46	X47	Y47	Z47	X48	Y48	Z48	X49	Y49	Z49	X50	Y50	Z50	X51	Y51	Z51	X52	Y52	Z52	X53	Y53	Z53	X54	Y54	Z54	X55	Y55	Z55	X56	Y56	Z56	X57	Y57	Z57	X58	Y58	Z58	X59	Y59	Z59	X60	Y60	Z60	X61	Y61	Z61	X62	Y62	Z62	X63	Y63	Z63	X64	Y64	Z64	X65	Y65	Z65	X66	Y66	Z66	X67	Y67	Z67	X68	Y68	Z68	X69	Y69	Z69	X70	Y70	Z70	X71	Y71	Z71	X72	Y72	Z72	X73	Y73	Z73	X74	Y74	Z74	

1	16.667	-535.09499	1092.21901	-145.87683	-540.25421	1074.66286	-328.83678	-309.59106	1054.80179	-270.09205	-427.96284	1431.23749	-164.09950	-347.66727	1477.05582	-249.48919	-466.41117	1632.84866	-102.18089	-452.94594	1567.54913	-269.17398	-572.62810	1427.33414	-294.51168	-624.18793	1113.07655	-324.12567	-631.96941	1130.85068	-380.65033	-565.55023	1108.78281	-383.38600	-670.29732	852.58682	-326.02562	-700.65811	866.72295	-300.02234	-680.51414	876.96732	-261.15555	-207.92004	1364.74533	-127.75237	-163.23229	1053.88084	-198.97184	-218.82309	1047.05154	-219.66114	-200.66969	1057.14340	-151.44155	-220.77682	802.07100	-146.52102	-207.32267	807.43179	-104.35516	-247.22672	824.93164	-84.59189	-616.31172	917.32735	-282.61780	-273.40168	905.89058	-158.42610	-638.73638	411.58409	-272.94552	-617.78065	455.34592	-348.38974	-542.82906	417.83516	-264.29102	-327.98733	476.23199	-124.65182	-264.45751	493.35045	-218.45154	-384.89475	469.65229	-201.79768	-632.12788	141.83681	-328.13457	-560.95726	133.81373	-341.66389	-601.83685	137.50483	-395.48843	-273.92599	131.61427	-171.96548	-256.58249	128.42505	-239.50315	-330.32433	126.19805	-209.69486	-322.30381	1570.31082	-189.43308	-380.51765	1071.94275	-104.25561	-845.99228	1165.19493	639.54857	-998.91899	1187.27539	549.06067	-817.93953	1603.83255	507.82646	-883.25188	1651.45920	603.62480	-869.41055	1790.39185	378.73665	-789.99435	1802.97104	538.11352	-941.94107	1786.69769	538.52669	-703.79875	1548.30215	644.43008	-709.67720	1180.51376	621.96552	-651.19431	1184.65248	653.23418	-708.31718	1171.12000	706.61362	-659.75723	911.97136	538.53016	-640.61073	931.40678	504.89960	-676.45538	952.25853	479.72137	-1050.25269	1568.16711	480.18074	-1086.30493	1198.62869	414.01062	-1049.89052	1175.22095	478.92899	-1023.88931	1203.88657	402.06810	-1043.80638	951.43326	358.32115	-1030.02968	971.16806	319.70850	-984.42902	971.35231	334.71836	-739.82857	1025.23178	616.74458	-1034.46045	1033.66493	424.30016	-780.66154	549.41139	506.85429	-782.24579	551.18694	620.17475	-889.61731	548.81378	552.63905	-955.11803	467.90699	348.64132	-1035.78781	519.10725	408.49937	-948.18695	495.45322	463.77533	-819.17038	186.43085	557.72449	-895.97130	188.67197	546.09001	-866.75323	178.87306	625.94307	-1041.68045	167.23934	410.59788	-1058.81424	165.97761	487.87994	-976.89972	162.98824	441.14845	-921.24405	1193.21976	406.91162	-741.19110	1173.51540	503.66386 
2	16.683	-535.01194	1092.14722	-146.11339	-540.12947	1074.70222	-329.03435	-309.58992	1055.09338	-270.77744	-428.45211	1431.53687	-164.43718	-348.09357	1477.25845	-249.80711	-467.33639	1633.51974	-103.56321	-452.74883	1567.67822	-270.34189	-573.12637	1427.28516	-294.79696	-623.76694	1112.98141	-325.35965	-631.30814	1130.81253	-381.88759	-564.60484	1108.99406	-384.56337	-669.35104	852.67174	-326.70643	-699.79652	866.84875	-300.94227	-679.69757	877.38884	-261.99028	-208.23519	1365.27527	-128.09875	-162.82251	1054.46983	-199.73053	-218.36706	1047.46765	-220.48340	-200.36863	1057.78725	-152.36736	-220.77879	802.96898	-145.75643	-207.56067	808.62877	-103.59625	-247.44429	826.35178	-85.23544	-615.87761	917.25159	-283.07701	-273.40950	905.87166	-158.43235	-638.69217	411.60877	-273.04138	-617.75002	455.31216	-348.51391	-542.75318	417.81017	-264.58096	-327.83596	476.28441	-124.70505	-264.27391	493.31989	-218.37839	-384.74777	469.68933	-201.80977	-632.08996	141.81306	-328.20465	-560.61161	133.93952	-341.97342	-601.84177	137.49218	-395.61199	-273.86215	131.56371	-171.97041	-256.53030	128.39853	-239.47660	-330.30117	126.21826	-209.69185	-322.72507	1570.43686	-189.87221	-380.46051	1072.05132	-104.53817	-846.01715	1165.41504	639.38477	-998.45291	1187.52434	548.79147	-819.84833	1603.74237	506.20655	-881.96297	1651.81076	603.93738	-878.28331	1789.56024	379.52938	-789.40437	1802.99805	533.84922	-941.94000	1786.78406	542.62745	-703.18886	1549.27811	642.38861	-709.47639	1181.34270	622.20139	-651.14281	1185.56427	653.80119	-708.64563	1172.72652	706.82388	-659.57840	911.47491	540.51125	-639.90479	931.19934	507.55608	-675.04822	952.08130	481.57482	-1049.49135	1570.11002	479.38728	-1085.97694	1200.39658	413.83541	-1050.14023	1177.11014	479.14986	-1023.57185	1205.46921	402.07565	-1043.30612	952.93739	359.33765	-1029.56421	972.53021	320.67230	-983.98750	972.71248	335.74749	-739.75166	1025.13214	616.66901	-1034.75044	1033.84644	424.53026	-780.99434	549.42879	507.01805	-782.25716	551.50700	620.36243	-889.97650	548.82370	552.86400	-955.46951	468.08491	348.59371	-1036.10352	519.34490	408.52158	-948.38593	495.61630	463.63815	-819.25484	186.51787	557.85183	-896.03859	188.68912	546.13914	-866.82167	178.85248	626.01128	-1041.78429	167.34241	410.56904	-1058.79173	166.07336	487.84737	-976.94054	163.12578	441.11034	-921.74332	1193.13370	406.96056	-741.28128	1173.44063	503.13038 
3	16.700	-534.98188	1092.08549	-146.26266	-539.97196	1074.78851	-329.20296	-309.44864	1055.50217	-270.83263	-429.02565	1431.95038	-164.78796	-348.50822	1477.41074	-250.10378	-468.04493	1634.47739	-105.01707	-452.59102	1567.84241	-271.07384	-573.70052	1427.40417	-294.98537	-623.25272	1113.08022	-326.21986	-630.88619	1130.98595	-382.75028	-564.07570	1109.39133	-385.50007	-668.32787	852.80807	-327.54372	-698.76968	866.96251	-301.81849	-678.63441	877.54982	-262.91462	-208.58585	1365.85266	-128.31461	-162.40660	1055.14282	-200.30554	-217.74757	1048.12424	-221.17212	-200.01015	1058.51151	-152.92970	-221.01248	803.79555	-145.43802	-207.39193	809.78104	-103.56322	-247.25985	827.81197	-83.96776	-615.50114	917.27425	-283.62240	-273.16647	905.97435	-158.71258	-638.63590	411.54259	-273.19778	-617.69524	455.28080	-348.71990	-542.67277	417.78774	-264.82794	-327.47391	476.10394	-124.78463	-264.06313	493.30345	-218.41282	-384.59415	469.70905	-201.85499	-632.10377	141.85347	-328.27438	-560.55702	133.93354	-342.09183	-601.87626	137.47490	-395.73139	-273.85181	131.61651	-171.95322	-256.47501	128.38210	-239.44555	-330.25188	126.24955	-209.70488	-323.58662	1570.86639	-189.27021	-380.54276	1072.16003	-104.64214	-845.58968	1165.58434	639.05670	-998.00125	1187.57515	548.83614	-822.05421	1603.84216	504.89033	-881.28944	1652.21283	604.24828	-885.95253	1788.78784	380.07496	-790.15907	1803.05267	530.23609	-942.22229	1787.19284	545.88676	-702.75391	1550.28488	640.09392	-709.24835	1182.26913	622.27482	-650.93414	1186.63353	653.97659	-708.65761	1174.12560	706.88835	-659.22531	912.19231	543.55396	-639.07433	931.02219	510.16247	-673.65562	951.71364	483.54816	-1049.07066	1571.85303	478.94150	-1086.04431	1201.93817	413.75793	-1050.35828	1178.82385	479.17671	-1023.39798	1206.97540	402.43149	-1043.08418	954.36943	360.07771	-1029.14993	973.71201	321.49326	-983.75137	973.98964	336.40099	-739.80392	1025.27565	616.05038	-1035.30533	1034.02046	424.97307	-781.39061	549.58145	507.15233	-782.68196	551.57055	620.72819	-890.41237	548.90007	553.16875	-955.79437	468.29182	348.37860	-1036.38382	519.47460	408.43639	-948.80524	495.86857	463.49064	-819.38950	186.64143	557.92969	-896.10939	188.69324	546.20174	-866.89575	178.82704	626.06201	-1041.88408	167.45153	410.51235	-1058.80852	166.17941	487.82070	-976.98174	163.26723	441.05270	-922.64297	1193.04550	407.03896	-741.50749	1173.53210	502.44751 
4	16.717	-535.03773	1092.05429	-146.46113	-539.76532	1074.90433	-329.33617	-309.32901	1055.85831	-270.72079	-429.73988	1432.51022	-165.17075	-348.87218	1477.57797	-250.39890	-468.56548	1635.56320	-106.79463	-452.43488	1568.13492	-272.48041	-574.12231	1427.63580	-295.09140	-623.13622	1113.32718	-326.78864	-630.64415	1131.30905	-383.32344	-563.84613	1109.83604	-386.22349	-667.21687	852.90215	-328.58894	-697.69089	866.96838	-302.74822	-677.57126	877.56241	-263.89338	-209.05941	1366.46942	-128.37926	-162.12362	1055.78369	-200.80454	-217.55701	1048.72009	-221.57244	-200.01835	1059.21631	-153.43060	-221.42250	804.68231	-144.90549	-207.46532	810.86533	-103.05333	-246.96537	829.01947	-82.66799	-615.18730	917.33345	-284.07373	-272.76745	906.10138	-159.06522	-638.49693	411.65688	-273.47326	-617.57252	455.25978	-349.04110	-542.46014	417.86560	-265.23615	-327.78469	476.36818	-124.82981	-263.84750	493.27183	-218.56892	-384.44611	469.73175	-202.02089	-632.33368	142.01932	-328.25420	-560.46864	133.95595	-342.25685	-601.84772	137.43628	-395.85732	-273.83759	131.67516	-171.95700	-256.41031	128.38290	-239.46777	-330.23033	126.28747	-209.77720	-323.29811	1570.88974	-190.37384	-380.33440	1072.02538	-104.48151	-845.01694	1165.68382	638.75969	-998.14819	1187.79358	549.63982	-824.18663	1604.02939	503.99284	-881.42128	1652.49084	604.19708	-892.12509	1788.21594	380.59578	-791.67496	1803.00873	526.71486	-942.69966	1787.66953	547.90985	-702.60300	1551.28250	637.75105	-709.05685	1183.06824	622.14344	-650.59677	1187.71645	653.89748	-708.38326	1175.79674	706.69342	-658.66104	912.04231	546.06525	-637.94342	930.72929	512.75017	-672.19070	951.33163	485.49583	-1048.85986	1573.17963	478.78563	-1086.35178	1203.19969	413.80028	-1050.67932	1180.13588	479.39857	-1023.51051	1208.15628	402.68833	-1043.05740	955.55840	360.44868	-1028.93692	974.80698	321.86756	-983.58940	975.05844	337.13886	-738.73550	1025.88646	616.69025	-1035.73853	1034.07394	425.40226	-782.15286	549.45900	507.31728	-782.96974	551.70177	620.70412	-890.89355	549.01146	553.61835	-956.13747	468.47919	348.27705	-1036.70311	519.56219	408.41042	-949.01176	496.05103	463.41179	-819.50394	186.73031	557.98878	-896.25046	188.69625	546.31996	-866.93443	178.84064	626.14544	-1041.97182	167.50795	410.40215	-1058.84323	166.22528	487.76314	-977.07077	163.37847	440.94067	-923.72208	1192.98447	407.26433	-741.98303	1173.65868	501.44253 
